<svg width="909" height="855" xmlns="http://www.w3.org/2000/svg" xmlns:xlink="http://www.w3.org/1999/xlink" xml:space="preserve" overflow="hidden"><g transform="translate(-2730 -974)"><path d="M2944.49 1059.5 3301.26 1059.5 3301.26 1216.54C3301.26 1231.56 3314.12 1243.75 3329.97 1243.75L3473.5 1243.75 3473.5 1738.18C3473.5 1754.93 3459.18 1768.5 3441.51 1768.5L2944.49 1768.5C2926.82 1768.5 2912.5 1754.93 2912.5 1738.18L2912.5 1089.82C2912.5 1073.07 2926.82 1059.5 2944.49 1059.5Z" stroke="#BFBFBF" stroke-width="6.875" stroke-miterlimit="8" fill="#F2F2F2" fill-rule="evenodd"/><path d="M3316.5 1056.5 3475.5 1229.5 3333.74 1229.5C3324.22 1229.5 3316.5 1221.79 3316.5 1212.27Z" stroke="#BFBFBF" stroke-width="6.875" stroke-miterlimit="8" fill="#E7E6E6" fill-rule="evenodd"/><path d="M2980 1417.58C2980 1409.53 2986.53 1403 2994.58 1403L3389.42 1403C3397.47 1403 3404 1409.53 3404 1417.58L3404 1606.42C3404 1614.47 3397.47 1621 3389.42 1621L2994.58 1621C2986.53 1621 2980 1614.47 2980 1606.42Z" fill="#A6A6A6" fill-rule="evenodd"/><text fill="#FFFFFF" font-family="Calibri,Calibri_MSFontService,sans-serif" font-weight="700" font-size="202" transform="matrix(1 0 0 1 3036.98 1580)">TXT</text></g></svg>